<svg xmlns="http://www.w3.org/2000/svg" xmlns:xlink="http://www.w3.org/1999/xlink" width="90" height="54" version="1.1" viewBox="0 0 90 54"><title>Artboard 1</title><desc>Created with Sketch.</desc><g id="Page-1" fill="none" fill-rule="evenodd" stroke="none" stroke-width="1"><g id="Artboard-1" fill="#FFF"><path id="Shape" d="M88.2,0 L1.8,0 C0.8,0 0,0.8 0,1.8 L0,52.2 C0,53.2 0.8,54 1.8,54 L34.7,54 C35.5,54 36.2,53.5 36.4,52.8 L40.9,39.1 C42.2,35.2 47.7,35.2 49,39.1 L53.6,52.8 C53.8,53.5 54.5,54 55.3,54 L88.2,54 C89.2,54 90,53.2 90,52.2 L90,1.8 C90,0.8 89.2,0 88.2,0 L88.2,0 Z M22.5,36 C17.5,36 13.5,32 13.5,27 C13.5,22 17.5,18 22.5,18 C27.5,18 31.5,22 31.5,27 C31.5,32 27.5,36 22.5,36 L22.5,36 Z M67.5,36 C62.5,36 58.5,32 58.5,27 C58.5,22 62.5,18 67.5,18 C72.5,18 76.5,22 76.5,27 C76.5,32 72.5,36 67.5,36 L67.5,36 Z"/></g></g></svg>