<svg xmlns="http://www.w3.org/2000/svg" width="682.667" height="682.667" preserveAspectRatio="xMidYMid meet" version="1.0" viewBox="0 0 512 512"><metadata>Created by potrace 1.11, written by Peter Selinger 2001-2013</metadata><g fill="#000" stroke="none"><path d="M0 2560 l0 -2560 2560 0 2560 0 0 2560 0 2560 -2560 0 -2560 0 0 -2560z m1300 1205 c6 -527 6 -527 55 -611 65 -112 226 -162 374 -118 73 21 150 97 182 179 24 60 24 62 27 558 l3 497 155 0 154 0 0 -479 c0 -547 -4 -583 -70 -718 -73 -149 -207 -255 -380 -300 -89 -23 -281 -23 -370 1 -102 28 -197 82 -270 156 -76 76 -123 158 -150 266 -19 72 -20 112 -20 576 l0 499 153 -3 152 -3 5 -500z m1883 475 c13 -14 93 -139 177 -278 133 -221 154 -251 164 -235 7 10 81 131 166 270 112 184 161 255 180 263 15 6 84 9 173 8 l147 -3 -236 -353 c-129 -195 -233 -359 -231 -366 3 -6 111 -182 241 -391 l236 -380 -166 -3 c-129 -2 -172 1 -188 11 -12 8 -95 141 -186 295 -91 155 -167 282 -170 281 -3 0 -75 -118 -160 -261 -85 -144 -168 -276 -184 -294 l-28 -34 -159 0 c-87 0 -159 2 -159 5 0 2 108 174 240 382 132 207 238 383 236 389 -3 7 -104 165 -225 351 -121 187 -223 347 -227 357 -6 16 5 17 164 14 168 -3 172 -4 195 -28z m-1956 -1926 c24 -18 56 -95 210 -505 100 -266 190 -515 201 -553 l18 -68 22 82 c12 45 99 290 193 544 132 355 178 468 200 491 l29 30 147 3 146 4 -6 -23 c-3 -12 -138 -350 -299 -751 l-293 -728 -141 0 c-104 0 -143 3 -147 13 -32 79 -591 1466 -595 1475 -4 11 23 13 141 10 130 -3 149 -5 174 -24z m2408 2 c159 -36 281 -122 333 -234 25 -52 27 -67 27 -182 0 -122 -1 -127 -34 -194 -41 -84 -117 -161 -196 -200 -33 -16 -61 -31 -63 -32 -2 -1 15 -19 38 -41 22 -21 121 -162 219 -313 l177 -275 -158 -3 c-123 -2 -164 1 -186 12 -20 10 -64 71 -142 198 -188 303 -209 334 -235 346 -14 7 -55 12 -90 12 l-65 0 0 -285 0 -285 -155 0 -155 0 0 751 0 752 308 -6 c226 -4 325 -10 377 -21z" transform="translate(0.000000,512.000000) scale(0.100000,-0.100000)"/><path d="M3260 1865 l0 -237 133 4 c124 3 135 6 187 33 71 39 110 99 117 183 10 106 -27 176 -115 219 -49 24 -69 27 -188 31 l-134 5 0 -238z" transform="translate(0.000000,512.000000) scale(0.100000,-0.100000)"/></g></svg>