<svg viewBox="0 0 32 32" xmlns="http://www.w3.org/2000/svg"><path d="M1 17.035c0 .656.238 1.235.713 1.737l1.444 1.447c.488.485 1.072.73 1.753.73.693 0 1.27-.245 1.733-.734l5.662-5.656v13.59c0 .67.24 1.213.722 1.63.482.42 1.063.628 1.743.628h2.465c.68 0 1.262-.21 1.743-.627.482-.415.722-.96.722-1.63V14.56l5.662 5.657c.463.488 1.04.733 1.734.733.693 0 1.27-.245 1.733-.734l1.44-1.448c.49-.49.732-1.068.732-1.737 0-.68-.244-1.264-.732-1.753L17.737 2.713C17.287 2.238 16.71 2 16.003 2c-.694 0-1.278.238-1.753.714L1.713 15.28c-.475.5-.713 1.086-.713 1.755z" fill-rule="evenodd"/></svg>